# AST/ASF file generated using VICON BodyLanguage
# -----------------------------------------------
:version 1.10
:name VICON
:units
  mass 1.0
  length 0.45
  angle deg
:documentation
   .ast/.asf automatically generated from VICON data using
   VICON BodyBuilder and BodyLanguage model FoxedUp or BRILLIANT.MOD
:root
   order TX TY TZ RX RY RZ
   axis XYZ
   position 0 0 0  
   orientation 0 0 0 
:bonedata
  begin
     id 1 
     name lhipjoint
     direction 0.537252 -0.787203 0.302774 
     length 2.29576 
     axis 0 0 0  XYZ
  end
  begin
     id 2 
     name lfemur
     direction 0.34202 -0.939693 0  
     length 7.31114  
     axis 0 0 20  XYZ
    dof rx ry rz
    limits (-160.0 20.0)
           (-70.0 70.0)
           (-60.0 70.0)
  end
  begin
     id 3 
     name ltibia
     direction 0.34202 -0.939693 0   
     length 8.36008   
     axis 0 0 20   XYZ
    dof rx
    limits (-10.0 170.0)
  end
  begin
     id 4 
     name lfoot
     direction 0.0969116 -0.266263 0.959016   
     length 2.16704   
     axis -90 7.62852e-016 20   XYZ
    dof rx rz
    limits (-45.0 90.0)
           (-70.0 20.0)
  end
  begin
     id 5 
     name ltoes
     direction 1.53563e-011 -4.21779e-011 1   
     length 1.08338   
     axis -90 7.62852e-016 20   XYZ
    dof rx
    limits (-90.0 20.0)
  end
  begin
     id 6 
     name rhipjoint
     direction -0.588228 -0.754791 0.290308   
     length 2.39434  
     axis 0 0 0  XYZ 
  end
  begin
     id 7 
     name rfemur
     direction -0.34202 -0.939693 0   
     length 7.45207   
     axis 0 0 -20   XYZ
    dof rx ry rz
    limits (-160.0 20.0)
           (-70.0 70.0)
           (-70.0 60.0)
  end
  begin
     id 8 
     name rtibia
     direction -0.34202 -0.939693 0   
     length 8.03565   
     axis 0 0 -20   XYZ
    dof rx
    limits (-10.0 170.0)
 end
 begin
     id 9 
     name rfoot
     direction -0.107009 -0.294004 0.949795   
     length 2.11509  
     axis -90 -7.62852e-016 -20   XYZ
    dof rx rz
    limits (-45.0 90.0)
           (-20.0 70.0)
  end
  begin
     id 10 
     name rtoes
     direction -1.53533e-011 -4.22004e-011 1   
     length 1.05493   
     axis -90 -7.62852e-016 -20   XYZ
    dof rx
    limits (-90.0 20.0)
  end
  begin
     id 11 
     name lowerback
     direction -0.0115208 0.997969 -0.0626515   
     length 2.03153   
     axis 0 0 0   XYZ
    dof rx ry rz
    limits (-20.0 45.0)
           (-30.0 30.0)
           (-30.0 30.0)
  end
  begin
     id 12 
     name upperback
     direction -0.00423475 0.999974 -0.00583614   
     length 2.03619   
     axis 0 0 0   XYZ
    dof rx ry rz
    limits (-20.0 45.0)
           (-30.0 30.0)
           (-30.0 30.0)
  end
  begin
     id 13 
     name thorax
     direction 0.00289429 0.999728 0.0231573   
     length 2.03921   
     axis 0 0 0   XYZ
    dof rx ry rz
    limits (-20.0 45.0)
           (-30.0 30.0)
           (-30.0 30.0)
  end
  begin
     id 14 
     name lowerneck
     direction 0.0188995 0.987777 0.154721   
     length 1.78836   
     axis 0 0 0   XYZ
    dof rx ry rz
    limits (-20.0 45.0)
           (-30.0 30.0)
           (-30.0 30.0)
  end
  begin
     id 15 
     name upperneck
     direction -0.00612612 0.992995 -0.118   
     length 1.81789   
     axis 0 0 0   XYZ
    dof rx ry rz
    limits (-20.0 45.0)
           (-30.0 30.0)
           (-30.0 30.0)
  end
  begin
     id 16
     name head
     direction -0.00420226 0.998397 -0.0564482  
     length 1.82234  
     axis 0 0 0   XYZ
    dof rx ry rz
    limits (-20.0 45.0)
           (-30.0 30.0)
           (-30.0 30.0)
  end
  begin
     id 17 
     name lclavicle
     direction 0.916488 0.396539 0.0529676  
     length 3.51732  
     axis 0 0 0   XYZ
    dof ry rz
    limits (-20.0 10.0)
           (0.0 20.0)
  end
  begin
     id 18 
     name lhumerus
     direction 1 -4.4896e-011 8.36962e-028   
     length 5.45077   
     axis 180 -30 -90   XYZ
    dof rx ry rz
    limits (-60.0 90.0)
           (-90.0 90.0)
           (-90.0 90.0)
  end
  begin
     id 19
     name lradius
     direction 1 -4.48962e-011 3.01407e-027   
     length 3.05488   
     axis 180 -30 -90   XYZ
    dof rx
    limits (-10.0 170.0)
  end
  begin
     id 20
     name lwrist
     direction 1 -4.49002e-011 4.72961e-027   
     length 1.52744   
     axis -2.72261e-015 90 90   XYZ
    dof ry
    limits (-180.0 0.0)
 end
  begin
     id 21 
     name lhand
     direction 1 -4.4899e-011 9.45681e-027   
     length 0.638818   
     axis -6.0311e-015 90 90   XYZ
    dof rx rz
    limits (-90.0 90.0)
           (-45.0 45.0)
  end
  begin
     id 22 
     name lfingers
     direction 1 -4.48871e-011 1.88632e-026   
     length 0.515032   
     axis -1.20625e-014 90 90   XYZ
    dof rx
    limits (0.0 90.0)
  end
  begin
     id 23
     name lthumb
     direction 0.707107 -6.34964e-011 0.707107   
     length 0.739485   
     axis -90 45 6.32835e-014   XYZ
    dof rx rz
    limits (-45.0 45.0)
           (-45.0 45.0)
  end
  begin
     id 24 
     name rclavicle
     direction -0.949427 0.303202 0.0815894   
     length 3.76167  
     axis 0 0 0   XYZ 
    dof ry rz
    limits (-10.0 20.0)
           (-20.0 0.0)
  end
  begin
     id 25 
     name rhumerus
     direction -1 -4.48971e-011 -6.43969e-018  
     length 4.88702   
     axis 180 30 90   XYZ
    dof rx ry rz
    limits (-90.0 60.0)
           (-90.0 90.0)
           (-90.0 90.0)
  end
  begin
     id 26 
     name rradius
     direction -1 -4.48987e-011 5.46662e-027   
     length 3.22603   
     axis 180 30 90   XYZ
    dof rx
    limits (-10.0 170.0)
  end
  begin
     id 27 
     name rwrist
     direction -1 -4.48956e-011 4.72476e-027   
     length 1.61302   
     axis -2.72261e-015 -90 -90   XYZ
    dof ry
    limits (-180.0 0.0)
  end
  begin
     id 28
     name rhand
     direction -1 -4.4889e-011 9.43571e-027   
     length 0.716293   
     axis -6.0311e-015 -90 -90   XYZ
    dof rx rz
    limits (-90.0 90.0)
           (-45.0 45.0)
  end
  begin
     id 29
     name rfingers
     direction -1 -4.48887e-011 1.88701e-026   
     length 0.577494   
     axis -1.20625e-014 -90 -90   XYZ
    dof rx
    limits (0.0 90.0)
  end
  begin
     id 30
     name rthumb
     direction -0.707107 -6.34825e-011 0.707107   
     length 0.829169   
     axis -90 -45 -6.32835e-014   XYZ
    dof rx rz
    limits (-45.0 45.0)
           (-45.0 45.0)
  end
:hierarchy
  begin
    root lhipjoint rhipjoint lowerback
    lhipjoint lfemur
    lfemur ltibia
    ltibia lfoot
    lfoot ltoes
    rhipjoint rfemur
    rfemur rtibia
    rtibia rfoot
    rfoot rtoes
    lowerback upperback
    upperback thorax
    thorax lowerneck lclavicle rclavicle
    lowerneck upperneck
    upperneck head
    lclavicle lhumerus
    lhumerus lradius
    lradius lwrist
    lwrist lhand lthumb
    lhand lfingers
    rclavicle rhumerus
    rhumerus rradius
    rradius rwrist
    rwrist rhand rthumb
    rhand rfingers
  end

#!OML:ASF F:\VICON\USERDATA\INSTALL\rory3\rory3.ASF
:FULLY-SPECIFIED
:DEGREES
451
root 1.61737 18.5478 0.287483 24.7472 76.9319 11.7946
lowerback -8.82082 -3.07597 -0.0795619
upperback -2.14433 -4.09438 1.84877
thorax 2.85386 -2.02008 1.49774
lowerneck -15.4394 9.24037 11.6614
upperneck 14.7213 12.9093 -14.6421
head 8.91115 5.52242 -5.15514
rclavicle 1.41137e-014 -2.14687e-014
rhumerus -32.334 4.89904 -84.0023
rradius 75.0307
rwrist 192.433
rhand -17.8171 -6.01041
rfingers 7.12502
rthumb 8.4468 -35.8215
lclavicle 1.41137e-014 -2.14687e-014
lhumerus -10.9174 -30.4524 53.2353
lradius 79.9996
lwrist -5.85352
lhand -13.0384 20.8396
lfingers 7.12502
lthumb 13.0562 50.411
rfemur -13.0792 9.689 10.667
rtibia 5.7642
rfoot -7.03022 2.59301
rtoes -5.36582
lfemur -13.3544 11.4699 -23.9216
ltibia 14.7335
lfoot -13.8254 5.79565
ltoes -26.3815
452
root 1.61924 18.5475 0.272539 24.1682 76.5489 11.2756
lowerback -8.75084 -3.15099 0.00382607
upperback -2.09587 -4.2059 1.93306
thorax 2.86901 -2.07599 1.5277
lowerneck -15.2965 9.46686 11.8769
upperneck 14.7611 13.2523 -14.8773
head 8.98321 5.68117 -5.22037
rclavicle 2.20651e-014 -8.74653e-015
rhumerus -32.2938 5.10679 -84.0987
rradius 75.0918
rwrist 192.64
rhand -17.6135 -5.99762
rfingers 7.12502
rthumb 8.64335 -35.8007
lclavicle 2.20651e-014 -8.74653e-015
lhumerus -10.0335 -30.3441 52.2143
lradius 79.7208
lwrist -5.86164
lhand -13.5907 20.8333
lfingers 7.12502
lthumb 12.5237 50.4379
rfemur -12.9973 10.0872 10.5961
rtibia 5.56446
rfoot -6.92901 2.49137
rtoes -5.1704
lfemur -13.2906 11.617 -23.96
ltibia 14.8119
lfoot -13.9708 6.01134
ltoes -26.3998
453
root 1.62675 18.5475 0.260303 24.1177 76.3483 11.1232
lowerback -8.92113 -3.30031 0.0625197
upperback -2.17048 -4.40936 1.98691
thorax 2.89174 -2.17551 1.52003
lowerneck -14.8428 9.70054 12.2772
upperneck 14.8299 13.6098 -15.1448
head 9.02854 5.8689 -5.33475
rclavicle -2.19657e-014 -1.59028e-015
rhumerus -32.4817 5.30183 -84.2294
rradius 75.1032
rwrist 192.797
rhand -17.4702 -6.02622
rfingers 7.12502
rthumb 8.78158 -35.8235
lclavicle -2.19657e-014 -1.59028e-015
lhumerus -9.36966 -30.4749 51.1503
lradius 79.6607
lwrist -5.87333
lhand -13.868 20.7325
lfingers 7.12502
lthumb 12.2564 50.3534
rfemur -13.0157 10.2592 10.5018
rtibia 5.35687
rfoot -6.84844 2.44089
rtoes -5.26353
lfemur -13.4202 11.7952 -24.0575
ltibia 14.9161
lfoot -14.0487 5.95817
ltoes -26.2278
454
root 1.63437 18.5456 0.2473 23.0746 75.8781 10.1061
lowerback -8.91831 -3.33932 0.258793
upperback -2.1989 -4.48028 2.08272
thorax 2.8555 -2.20915 1.50266
lowerneck -14.3409 9.90623 12.5312
upperneck 14.7227 13.9576 -15.4634
head 9.0005 6.04736 -5.44474
rclavicle -3.1408e-014 1.03368e-014
rhumerus -32.6721 5.44293 -84.2714
rradius 75.0872
rwrist 192.639
rhand -17.3947 -6.05828
rfingers 7.12502
rthumb 8.85444 -35.8525
lclavicle -3.1408e-014 1.03368e-014
lhumerus -8.66294 -30.627 50.0848
lradius 79.6834
lwrist -5.56994
lhand -13.8183 20.8957
lfingers 7.12502
lthumb 12.3043 50.5136
rfemur -13.0714 10.7759 10.473
rtibia 5.32507
rfoot -6.80703 2.42068
rtoes -5.19832
lfemur -13.3192 12.1073 -24.0141
ltibia 14.9277
lfoot -14.1973 6.11085
ltoes -25.7935
455
root 1.63689 18.5442 0.233549 22.7405 75.1942 9.81619
lowerback -8.85942 -3.37817 0.169683
upperback -2.18377 -4.52695 2.15723
thorax 2.85286 -2.23366 1.62655
lowerneck -13.7889 10.1237 12.8235
upperneck 14.3449 14.3084 -15.9151
head 8.89017 6.2281 -5.60571
rclavicle 2.15681e-014 0
rhumerus -32.7813 5.76608 -84.3053
rradius 75.1032
rwrist 192.11
rhand -17.2327 -5.83181
rfingers 7.12502
rthumb 9.01076 -35.6194
lclavicle 2.15681e-014 0
lhumerus -7.90483 -30.5058 49.143
lradius 79.4171
lwrist -4.97485
lhand -14.1746 20.7634
lfingers 7.12502
lthumb 11.9607 50.4016
rfemur -13.1959 11.4148 10.1809
rtibia 5.28674
rfoot -6.71404 2.35672
rtoes -5.29632
lfemur -13.2382 12.5041 -24.2233
ltibia 14.9256
lfoot -14.31 6.34339
ltoes -25.7925
